<svg xmlns="http://www.w3.org/2000/svg" version="1.1" x="0" y="0" width="128" height="128" viewBox="0 0 128 128">
<g id="base" opacity="0.9">
<path class="base" d="M64 0C99.3 0 128 28.6 128 64 128 99.4 99.3 128 64 128 28.7 128 0 99.4 0 64 0 28.6 28.7 0 64 0z" fill="#000000" id="Color_Fill_16_copy_39"/></g>
<g id="Color_Fill_232_copy">
<path class="main" d="M82.7 32.9C83.5 33 83.1 33 83.9 33L84.6 33.4C85.4 34.2 85.4 35.5 84.6 36.3 81.8 39.1 72.4 48.5 72.4 48.5 74.9 52.4 74.5 57.7 71.1 61.1 67.1 65 60.8 65 56.9 61.1 53 57.2 53 50.8 56.9 46.9 60.3 43.5 65.6 43.1 69.4 45.6 69.4 45.6 79.5 35.5 81.7 33.4 82 33.2 82.2 33 82.7 32.9zM64.3 48C62.5 47.9 61.1 48.7 59.7 49.7 57.4 52.1 57.4 55.9 59.7 58.2 62.1 60.6 65.9 60.6 68.2 58.2 70.6 55.9 70.6 52.1 68.2 49.7 66.7 48.5 67.7 49.1 65.1 48.1L64.3 48zM22.4 46C22.8 46 23.1 46.1 23.3 46.3 23.5 46.5 23.6 46.7 23.6 47 23.6 47.3 23.5 47.5 23.3 47.7 23.1 47.9 22.8 48 22.4 48 22.4 48 17 48 17 48 17 48 17 52 17 52 17 52 21.7 52 21.7 52 22.1 52 22.4 52.1 22.6 52.3 22.8 52.4 22.9 52.7 22.9 53 22.9 53.3 22.8 53.5 22.6 53.7 22.4 53.9 22.1 54 21.7 54 21.7 54 17 54 17 54 17 54 17 58 17 58 17 58 22.7 58 22.7 58 23.1 58 23.4 58.1 23.6 58.3 23.9 58.5 24 58.7 24 59 24 59.3 23.9 59.5 23.6 59.7 23.4 59.9 23.1 60 22.7 60 22.7 60 15.6 60 15.6 60 15 60 14.6 59.9 14.4 59.6 14.1 59.4 14 58.9 14 58.4 14 58.4 14 47.6 14 47.6 14 47.2 14.1 46.9 14.2 46.7 14.3 46.4 14.5 46.3 14.7 46.2 14.9 46.1 15.2 46 15.6 46L22.4 46zM112.7 45C113.1 45 113.4 45.1 113.6 45.3 113.8 45.5 113.9 45.7 113.9 46 113.9 46.3 113.8 46.5 113.6 46.7 113.4 46.9 113.1 47 112.7 47 112.7 47 107 47 107 47 107 47 107 51 107 51 107 51 110.9 51 110.9 51 111.3 51 111.6 51.1 111.8 51.3 112 51.4 112.2 51.7 112.2 52 112.2 52.3 112 52.6 111.8 52.7 111.6 52.9 111.3 53 110.9 53 110.9 53 107 53 107 53 107 53 107 57.5 107 57.5 107 58 106.9 58.4 106.6 58.6 106.4 58.9 105.9 59 105.5 59 105.1 59 104.6 58.9 104.4 58.6 104.1 58.4 104 58 104 57.5 104 57.5 104 46.6 104 46.6 104 46.2 104.1 45.9 104.2 45.7 104.3 45.4 104.5 45.3 104.7 45.2 104.9 45.1 105.2 45 105.6 45L112.7 45zM93.7 16.6C100.9 21.1 107 27.1 111.5 34.3 111.5 34.3 101.1 40.3 101.1 40.3 97.6 34.9 93 30.4 87.7 26.9 87.7 26.9 93.7 16.6 93.7 16.6zM34.4 16.5C34.4 16.5 40.4 26.9 40.4 26.9 35 30.3 30.5 34.8 27.1 40.1 27.1 40.1 16.6 34.1 16.6 34.1 21.2 27 27.2 21 34.4 16.5zM66 8.1C74.7 8.4 82.9 10.7 90.2 14.5 90.2 14.5 84.2 24.9 84.2 24.9 78.7 22.1 72.6 20.4 66 20.1L66 8.1zM62 8.1C62 8.1 62 20.1 62 20.1 55.5 20.4 49.3 22.1 43.8 24.9 43.8 24.9 37.8 14.5 37.8 14.5 45.1 10.7 53.3 8.4 62 8.1z" fill="#FFFFFF" id="Color_Fill_232_copy"/></g></svg>