<?xml version="1.0" encoding="utf-8"?>
<!-- Generator: Adobe Illustrator 16.0.0, SVG Export Plug-In . SVG Version: 6.00 Build 0)  -->
<!DOCTYPE svg PUBLIC "-//W3C//DTD SVG 1.1//EN" "http://www.w3.org/Graphics/SVG/1.1/DTD/svg11.dtd">
<svg version="1.1" id="Layer_1" xmlns="http://www.w3.org/2000/svg" xmlns:xlink="http://www.w3.org/1999/xlink" x="0px" y="0px"
	 width="108px" height="108px" viewBox="0 0 108 108" enable-background="new 0 0 108 108" xml:space="preserve">
<circle class="base" cx="54.059" cy="54.686" r="49"/>
<g>
	<path class="main" fill="#FFFFFF" d="M49.463,78.421V28.3c0-0.934-0.752-1.686-1.7-1.686h-9.977c-0.948,0-1.701,0.752-1.701,1.686v50.121
		c0,0.933,0.752,1.7,1.701,1.7h9.977C48.711,80.121,49.463,79.368,49.463,78.421z"/>
	<path class="main" fill="#FFFFFF" d="M70.058,26.615h-9.977c-0.933,0-1.7,0.752-1.7,1.686v50.121c0,0.933,0.753,1.7,1.7,1.7h9.977
		c0.933,0,1.7-0.753,1.7-1.7V28.3C71.758,27.367,71.005,26.615,70.058,26.615z"/>
</g>
</svg>
