<?xml version="1.0" encoding="utf-8"?>
<!-- Generator: Adobe Illustrator 16.0.0, SVG Export Plug-In . SVG Version: 6.00 Build 0)  -->
<!DOCTYPE svg PUBLIC "-//W3C//DTD SVG 1.1//EN" "http://www.w3.org/Graphics/SVG/1.1/DTD/svg11.dtd">
<svg version="1.1" id="Layer_1" xmlns="http://www.w3.org/2000/svg" xmlns:xlink="http://www.w3.org/1999/xlink" x="0px" y="0px"
	 width="108px" height="108px" viewBox="0 0 108 108" enable-background="new 0 0 108 108" xml:space="preserve">
<circle class="base" cx="53.944" cy="54.685" r="49"/>
<path class="main" fill="#FFFFFF" d="M36.507,53.455c0,1.281,0.578,2.426,1.488,3.182L76.32,79.447c0.51,0.273,0.979,0.467,1.543,0.467
	c1.502,0,2.729-1.24,2.729-2.758h0.014V29.75h-0.014c0-1.516-1.227-2.756-2.729-2.756c-0.551,0-1.033,0.165-1.502,0.44
	L37.995,50.271C37.084,51.042,36.507,52.173,36.507,53.455z"/>
<path class="main" fill="#FFFFFF" d="M29.747,78.262c0,0.912,0.741,1.652,1.653,1.652h9.372c0.914,0,1.653-0.74,1.653-1.652V28.648
	c0-0.913-0.74-1.653-1.653-1.653H31.4c-0.913,0-1.653,0.74-1.653,1.653V78.262z"/>
</svg>
