<svg xmlns="http://www.w3.org/2000/svg" version="1.1" x="0" y="0" width="128" height="128" viewBox="0 0 128 128">
<g id="base" opacity="0.90">
<path class="base" d="M64 0C99.3 0 128 28.6 128 64 128 99.4 99.3 128 64 128 28.7 128 0 99.4 0 64 0 28.6 28.7 0 64 0z" fill="#000000" id="Color_Fill_16_copy_29"/></g>
<g id="Color_Fill_48">
<path class="main" d="M62.5 7C66.1 7 69 9.9 69 13.4 69 13.4 69 13.9 69 13.9 69 13.9 69 33 69 33 73.1 35.3 76 39.7 76 44.7 76 52.1 69.9 58.1 62.5 58.1 55.1 58.1 49 52.1 49 44.7 49 39.7 51.9 35.3 56 33 56 27.7 56 15.3 56 13.4 56 9.9 59 7 62.5 7zM62.5 10C60.5 10 59 11.6 59 13.6 59 13.4 59 30.5 59 34.9 59 34.9 58.7 34.9 58.7 34.9 54.8 36.4 52 40.2 52 44.7 52 50.5 56.7 55 62.5 55 68.3 55 73 50.5 73 44.7 73 40.2 70.3 36.4 66.3 34.9 66.3 34.9 66 34.9 66 34.9L66 13.6C66 11.6 64.5 10 62.5 10zM62.5 17.2C63.4 17.2 64 17.9 64 18.8 64 18.6 64 30.2 64 37.2 67.5 38 70.1 41.1 70.1 44.7 70.1 49 66.8 52.3 62.5 52.3 58.3 52.3 54.9 49 54.9 44.7 54.9 41 57.5 38 61 37.2 61 30.4 61 19.5 61 18.8 61 17.9 61.6 17.2 62.5 17.2zM80.4 29C81.3 29 82 29.6 82 30.5 82 31.4 81.3 32 80.4 32 80.2 32 74.5 32 73.6 32 72.7 32 72 31.4 72 30.5 72 29.6 72.7 29 73.6 29L80.4 29zM80.4 23C81.3 23 82 23.6 82 24.5 82 25.4 81.3 26 80.4 26 80.2 26 74.5 26 73.6 26 72.7 26 72 25.4 72 24.5 72 23.6 72.7 23 73.6 23L80.4 23zM80.4 17C81.3 17 82 17.5 82 18.4 82 19.3 81.3 20 80.4 20 80.2 20 74.5 20 73.6 20 72.7 20 72 19.3 72 18.4 72 17.5 72.7 17 73.6 17L80.4 17zM80.4 11C81.3 11 82 11.6 82 12.5 82 13.4 81.3 14 80.4 14 80.2 14 74.5 14 73.6 14 72.7 14 72 13.4 72 12.5 72 11.6 72.7 11 73.6 11L80.4 11z" fill="#FFFFFF" id="Color_Fill_48"/></g></svg>