<svg xmlns="http://www.w3.org/2000/svg" version="1.1" x="0" y="0" width="128" height="128" viewBox="0 0 128 128">
<g id="base" opacity="0.90">
<path class="base" d="M64 0C99.3 0 128 28.6 128 64 128 99.4 99.3 128 64 128 28.7 128 0 99.4 0 64 0 28.6 28.7 0 64 0z" fill="#000000" id="Color_Fill_16_copy_18"/></g>
<g id="Color_Fill_40_copy_13">
<path class="main" d="M64 6C64 6 91.7 54 91.7 54 91.7 54 36.3 54 36.3 54 36.3 54 64 6 64 6zM72.3 27.6C70.2 27.6 71 27.2 69.8 28.1 69.8 28 67.5 30.4 64 33.9 60.5 30.4 58.2 28.1 58.2 28.1 57.3 27.2 55.9 27.2 55 28.1 54.1 29 54.1 30.4 55 31.3L60.8 37.1C57.4 40.5 54.7 43.1 54.6 43.3 53.7 44.2 53.7 45.6 54.6 46.5 55.5 47.4 56.9 47.4 57.8 46.5 57.9 46.4 60.6 43.7 64 40.3 67.4 43.7 70 46.3 70.1 46.4 71.1 47.4 72.5 47.4 73.4 46.5 74.3 45.6 74.3 44.2 73.4 43.2 73.3 43.1 70.6 40.5 67.2 37.1 70.7 33.6 73 31.3 73 31.3 73.9 30.4 73.9 29 73 28.1L72.3 27.6z" fill="#FFFFFF" id="Color_Fill_40_copy_13"/></g></svg>