<svg xmlns="http://www.w3.org/2000/svg" version="1.1" x="0" y="0" width="128" height="128" viewBox="0 0 128 128">
<g id="base" opacity="0.90">
<path class="base" d="M64 0C99.3 0 128 28.6 128 64 128 99.4 99.3 128 64 128 28.7 128 0 99.4 0 64 0 28.6 28.7 0 64 0z" fill="#000000" id="Color_Fill_16_copy_19"/></g>
<g id="Color_Fill_40_copy_15">
<path class="main" d="M41 36C45.5 36 49 39.8 49 44.3L49 58C49 58 33 58 33 58 33 58 33 43.9 33 44.3 33 39.8 36.5 36 41 36zM82.6 13.2C86.6 14.3 88.6 17.1 89 21.1L89 58C89 58 73 58 73 58 73 58 73 20.7 73 21.1 73 16.6 76.5 13 81 13L82.6 13.2zM61 25C65.5 25 69 28.7 69 33.2L69 58C69 58 53 58 53 58 53 58 53 32.8 53 33.2 53 28.7 56.5 25 61 25z" fill="#FFFFFF" id="Color_Fill_40_copy_15"/></g></svg>