<svg xmlns="http://www.w3.org/2000/svg" version="1.1" x="0" y="0" width="128" height="128" viewBox="0 0 128 128">
<g id="base" opacity="0.90">
<path class="base" d="M64 0C99.3 0 128 28.6 128 64 128 99.4 99.3 128 64 128 28.7 128 0 99.4 0 64 0 28.6 28.7 0 64 0z" fill="#000000" id="Color_Fill_16_copy_11"/></g>
<g id="Color_Fill_209_copy_2">
<path class="main" d="M71 45.9L71 48.3C71 52.2 73.8 55 78.1 55 80.7 55 83.3 55 83.3 55 84.2 55 85 55.8 85 56.7 85 56.7 85 60 85 60L43 60C43 60 43 56.7 43 56.7 43 55.8 43.8 55 44.7 55 44.7 55 47.2 55 49.9 55 54.2 55 57 52.2 57 48.3 57 47.5 57 46.7 57 45.9 59.2 46.6 61.5 47 64 47 66.4 47.1 68.7 46.5 71 45.9zM64 6C74.5 6 83 14.5 83 25 83 35.5 74.5 44 64 44 53.5 44 45 35.5 45 25 45 14.5 53.5 6 64 6zM64 11C56.2 11 50 17.3 50 25 50 32.7 56.2 39 64 39 71.7 39 78 32.7 78 25 78 21 76.4 17.5 73.7 14.9 73.7 14.9 73.7 14.9 73.7 14.9 71.2 12.5 67.8 11 64 11zM71.2 17L71.7 17.3C72.3 17.8 71.8 18.9 71.8 18.9 71.8 18.9 67.8 26.2 67.8 26.2 67.8 26.2 67 27.4 66.5 27.9 65 29.4 62.7 29.3 61.2 27.8 59.7 26.3 59.6 24 61.1 22.5 61.6 22 62.8 21.3 62.8 21.3 62.8 21.3 70.1 17.2 70.1 17.2 70.6 17 70.2 17.1 71.2 17z" fill="#FFFFFF" id="Color_Fill_209_copy_2"/></g></svg>