<svg xmlns="http://www.w3.org/2000/svg" version="1.1" x="0" y="0" width="128" height="128" viewBox="0 0 128 128">
<g id="base" opacity="0.90">
<path class="base" d="M64 0C99.3 0 128 28.6 128 64 128 99.4 99.3 128 64 128 28.7 128 0 99.4 0 64 0 28.6 28.7 0 64 0z" fill="#000000" id="Color_Fill_16_copy_16"/></g>
<g id="Color_Fill_41">
<path class="main" d="M64 9C77.2 9 88 19.7 88 33 88 46.2 77.2 57 64 57 50.7 57 40 46.2 40 33 40 19.7 50.7 9 64 9zM64 41C61.8 41 60 42.8 60 45 60 47.2 61.8 49 64 49 66.2 49 68 47.2 68 45 68 42.8 66.2 41 64 41zM64 15C61.9 15 60 16.8 60 19.5 60.2 21.9 61.2 32.3 61.3 34.5 61.3 36.6 62.5 38.3 64 38.3 65.4 38.3 66.6 36.6 66.6 34.5 66.8 32.4 67.9 21.7 68 19.5 68 16.7 66.1 15 64 15z" fill="#FFFFFF" id="Color_Fill_41"/></g></svg>