<svg xmlns="http://www.w3.org/2000/svg" version="1.1" x="0" y="0" width="128" height="128" viewBox="0 0 128 128">
<g id="base" opacity="0.90">
<path class="base" d="M64 0C99.3 0 128 28.6 128 64 128 99.4 99.3 128 64 128 28.7 128 0 99.4 0 64 0 28.6 28.7 0 64 0z" fill="#000000" id="Color_Fill_16_copy_28"/></g>
<g id="Color_Fill_52">
<path class="main" d="M62 12C62 13.2 62 14.3 62 15.4L62 17.8C71.2 17.9 79.1 25.8 79.1 35 79.6 35 83 35 85 35 85 47.4 74.9 57 62.5 57 50 57 40 46.9 40 34.5 40 22 49.5 12 62 12zM62.5 21C55 21 49 27 49 34.5 49 42 55 48 62.5 48 69.9 48 76 42 76 34.5 76 27 69.9 21 62.5 21zM62.4 24C68.3 24 73 28.7 73 34.5 73 40.3 68.3 45 62.4 45 56.6 45 51.9 40.3 51.9 34.5 51.9 28.7 56.6 24 62.4 24zM62.5 40C61.7 40 61 40.6 61 41.5 61 42.3 61.7 43 62.5 43 63.3 43 64 42.3 64 41.5 64 40.6 63.3 40 62.5 40zM62.5 31C60.6 31 59 32.5 59 34.5 59 36.4 60.6 37.9 62.5 37.9 64.4 37.9 66 36.4 66 34.5 66 32.5 64.4 31 62.5 31zM55.5 33C54.7 33 54 33.7 54 34.5 54 35.3 54.7 36 55.5 36 56.3 36 57 35.3 57 34.5 57 33.7 56.3 33 55.5 33zM69.5 33C68.7 33 68 33.7 68 34.5 68 35.3 68.7 36 69.5 36 70.3 36 71 35.3 71 34.5 71 33.7 70.3 33 69.5 33zM62.5 26C61.7 26 61 26.7 61 27.5 61 28.3 61.7 29 62.5 29 63.3 29 64 28.3 64 27.5 64 26.7 63.3 26 62.5 26zM90 40.3C92.5 46.6 95 49.3 95 52 95 54.8 92.7 57 90 57 87.3 57 85 54.8 85 52 85 49.3 87.5 46.6 90 40.3zM64 6.9C78.2 7.7 89.3 18.8 90 33 90 33 81 33 81 33 80 24.2 73.4 17.3 64 16L64 6.9z" fill="#FFFFFF" id="Color_Fill_52"/></g></svg>