<svg xmlns="http://www.w3.org/2000/svg" version="1.1" x="0" y="0" width="128" height="128" viewBox="0 0 128 128">
<g id="base" opacity="0.90">
<path class="base" d="M64 0C99.3 0 128 28.6 128 64 128 99.4 99.3 128 64 128 28.7 128 0 99.4 0 64 0 28.6 28.7 0 64 0z" fill="#000000" id="Color_Fill_16_copy_10"/></g>
<g>
<path class="main" d="M51 13C51.5 13 52 13.5 52 14 52 14 52 18 52 18 52 18 76 18 76 18 76 18 76 14 76 14 76 13.5 76.5 13 77 13 77 13 80 13 80 13 80.5 13 81 13.5 81 14 81 14 81 18 81 18 81 18 91.3 18 91.3 18 92.2 18 93 18.7 93 19.7 93 19.7 93 56.3 93 56.3 93 57.2 92.2 58 91.3 58 91.3 58 36.7 58 36.7 58 35.7 58 35 57.2 35 56.3 35 56.3 35 19.7 35 19.7 35 18.7 35.7 18 36.7 18 36.7 18 47 18 47 18 47 18 47 14 47 14 47 13.5 47.5 13 48 13L51 13zM80.1 23L76.8 23C76.4 23 76 23.4 76 23.9L76 29C76 29 70.9 29 70.9 29 70.4 29 70 29.4 70 29.9L70 33.1C70 33.6 70.4 34 70.9 34L76 34C76 34 76 39.1 76 39.1 76 39.6 76.4 40 76.8 40L80.1 40C80.6 40 81 39.6 81 39.1L81 34C81 34 86.1 34 86.1 34 86.6 34 87 33.6 87 33.1L87 29.9C87 29.4 86.6 29 86.1 29L81 29C81 29 81 23.9 81 23.9 81 23.4 80.6 23 80.1 23zM57.1 29L41.8 29C41.4 29 41 29.4 41 29.8L41 33.1C41 33.6 41.4 34 41.8 34L57.1 34C57.6 34 58 33.6 58 33.1L58 29.8C58 29.4 57.6 29 57.1 29z" fill="#FFFFFF" id="Color_Fill_28_copy_2"/></g></svg>