<svg xmlns="http://www.w3.org/2000/svg" version="1.1" x="0" y="0" width="128" height="128" viewBox="0 0 128 128">
<g id="base" opacity="0.9">
<path class="base" d="M64 0C99.3 0 128 28.6 128 64 128 99.4 99.3 128 64 128 28.7 128 0 99.4 0 64 0 28.6 28.7 0 64 0z" fill="#000000" id="Color_Fill_16_copy_26"/></g>
<g id="oil_can">
<path class="main" d="M64.7 17C65.4 17 66 17.7 66 18.4 66 19.1 65.4 20 64.7 20 64.8 20 63.4 20 62 20 62 20 62 23 62 23 62 23 74.6 23 74.6 23 74.6 23 96 19.9 96 19.9 96 19.9 96 22.5 96 22.5 96 22.5 74 37 74 37L74 46.3C74 46.3 74 46.3 74 46.3 74 47.2 73.3 48 72.4 48 72.4 48 72.4 48 72.4 48 72.4 48 42.7 48 42.7 48 42.7 48 42.7 48 42.7 48 41.7 48 41 47.2 41 46.3 41 43 41 36 41 36 41 36 33.6 36 33.6 36 32.7 36 31.9 35.3 31.9 34.3 31.9 34.3 31.9 24.7 31.9 24.7 31.9 23.7 32.7 23 33.6 23 33.6 23 53.9 23 53.9 23 53.9 23 53.9 20 53.9 20 52.9 20 51.4 20 51.2 20 50.5 20 49.9 19.1 49.9 18.4 49.9 17.7 50.5 17 51.2 17L64.7 17zM41 26L35.4 26C35.2 26 35 26.2 35 26.4 35 26.4 35 32.5 35 32.5 35 32.8 35.2 33 35.4 33 35.4 33 41 33 41 33 41 33 41 26 41 26zM96 27C98.3 33 101 35.7 101 38.3 101 40.9 98.6 43 96 43 93.5 43 91 40.9 91 38.3 91 35.7 93.6 33 96 27z" fill="#FFFFFF" id="oil_can"/></g></svg>