<svg xmlns="http://www.w3.org/2000/svg" version="1.1" x="0" y="0" width="128" height="128" viewBox="0 0 128 128">
<g id="base" opacity="0.90">
<path class="base" d="M64 0C99.3 0 128 28.6 128 64 128 99.4 99.3 128 64 128 28.7 128 0 99.4 0 64 0 28.6 28.7 0 64 0z" fill="#000000" id="Color_Fill_16_copy_24"/></g>
<g id="sine_wave">
<path class="main" d="M91.5 38C91.5 38 91.5 38 91.5 38 91.5 38 87.6 38 83 38 81.6 38 79.1 36.7 78.5 34 77.1 29.5 73.9 19.5 73.9 19.5 73.9 19.5 66 51.6 66 51.6 66 51.6 64.9 57 63.2 57 61.6 57 61.5 56 60.8 54.8 58.5 47.1 52.7 27.9 52.7 27.9 52.7 27.9 48.3 43.4 47.8 45.3 46.1 50.1 45.5 51 43.7 51 42.5 51 41.6 49.5 41 48.3 40.3 46.8 37.8 41.6 36.8 39.4 36.2 38.2 35.3 38 34.2 38 30.4 38 29 38 29 38 29 38 29 38 29 38 27.9 37.8 27 36.6 27 35.5 27 33.3 29 33 29 33 29 33 29.7 33 36.1 33 39 33 40.2 35.7 40.4 36.5 41.7 39 43.6 42.9 43.6 42.9 43.6 42.9 48.8 26 49.9 22.2 50.2 21.4 51 19 52.9 19 55.2 18.9 56 22 56 22 56 22 62.9 44 62.9 44 62.9 44 71 12.3 71.1 12 71.2 11.6 71.9 8.9 73.8 8.9 76.2 8.9 76.5 11.2 76.7 11.8 76.9 12.4 80.8 25.6 82.2 30.8 82.9 32.6 84.3 33 84.8 33 89.1 33 93.9 33 91.5 33 92.8 33 94 34.2 94 35.5 94 36.8 92.8 38 91.5 38z" fill="#FFFFFF" id="sine_wave"/></g></svg>