<?xml version="1.0" encoding="utf-8"?>
<!-- Generator: Adobe Illustrator 19.1.0, SVG Export Plug-In . SVG Version: 6.00 Build 0)  -->
<svg version="1.1" id="Layer_1" xmlns="http://www.w3.org/2000/svg" xmlns:xlink="http://www.w3.org/1999/xlink" x="0px" y="0px"
	 viewBox="0 0 24 24" style="enable-background:new 0 0 24 24;" xml:space="preserve">
<style type="text/css">
	.st0{fill:#FFFFFF;}
</style>
<g>
	<g>
		<g>
			<path class="st0" d="M22.2,4.4L4.7,21.9c-0.7,0.7-1.4,1.1-2,0.5l0,0c-0.7-0.7-0.2-1.4,0.5-2L20.6,2.8c0.7-0.7,1.4-1.1,2-0.5l0,0
				C23.3,3,22.9,3.7,22.2,4.4z"/>
		</g>
	</g>
	<g>
		<g>
			<path class="st0" d="M4.7,2.8l17.5,17.5c0.7,0.7,1.1,1.4,0.5,2l0,0c-0.7,0.7-1.4,0.2-2-0.5L3.1,4.4C2.4,3.7,1.9,3,2.6,2.3l0,0
				C3.3,1.6,4,2.1,4.7,2.8z"/>
		</g>
	</g>
</g>
</svg>
