<svg xmlns="http://www.w3.org/2000/svg" viewBox="0 0 1023.5 1024"><defs><style>.cls-1{fill:#6abf4b;}.cls-2{fill:#fff;}</style></defs><title>Chalk</title><g id="Frame"><rect class="cls-1" width="1023.5" height="1024"/><path d="M907.32,798.83"/></g><g id="Icon"><path class="cls-2" d="M433.09,362.89c8.2-3.93,16.41-8.5,17.44-9.07,28.46-15.53,58.28-31.64,91.54-32.1,18.49-.29,33.93,10.39,44,18.46,21.55,17.38,29.24,50.06,17.49,74.41-5.15,10.68-14.27,26-28.46,38.46-12.67,11.09-25.25,22.31-37.38,34A445.56,445.56,0,0,0,500,527.53a287.39,287.39,0,0,0-18,24.21,132.92,132.92,0,0,0-7.53,13.1c-1.58,3.19-5.06,8.45-4.06,12.14a8.06,8.06,0,0,0,2.54,3.85,7.49,7.49,0,0,0,3.44,1.81c6.29,1.2,15.09-8.58,18.86-12.62,5.48-5.88,10.11-12.47,14.92-18.89,21-28,50-63.76,88.15-92.13q11.14-8.28,22.87-15.7c28.93-18.2,61.48-32.46,95.8-35.73,15.46-1.48,31.16-1.82,46.25,2.82,25.94,8,50.3,29,56.2,56.22,2.43,11.25,2.43,22.86,2.41,34.37q0,79.2.11,158.4V764.49H689.37l-218.7,110.9V764.49H203.83V146.43H821.89V328.87h-70V216.43H273.83V694.49H540.67v66.92l132-66.92c26.37,0,52.92,1,79.26-.17V564.74c0-23.23-.57-46.58.23-69.75.15-4.63-.53-9.66-3.75-13a16.12,16.12,0,0,0-7.61-4c-1.12-.3-2.26-.54-3.4-.73-16.25-2.65-34.79,3.39-49.62,9.69-17.06,7.24-32.89,17.22-47.73,28.25-24.16,17.94-47,42-73.9,77.93-16.65,22.2-44.51,59.37-89.41,59.6h-.36c-20.22,0-40.19-8.85-54.83-24.32S399,592.27,400.25,572c1.16-19.3,9.32-35.28,18-49.68A365.2,365.2,0,0,1,460,466.6c20.88-23.24,43.71-45.87,68.74-64.63,2.9-2.18,6.07-4.65,6.73-8.22a4.12,4.12,0,0,0-.32-2.79c-1.37-2.38-5-1.62-7.46-.5-16,7.14-30.24,17.46-46.06,24.69-32.42,14.81-68.19,29-103.86,16.77-19.87-6.8-33.79-20-39.17-37.19-7.26-23.16,4.08-43.21,8.35-50.75a357.36,357.36,0,0,1,75.73-92.85,35,35,0,0,1,49.4,3.24c12.74,14.53,8.92,34.36-3.24,49.39C452.5,323.88,436,340.88,419.87,359c0,0-4.54,6-4.2,8.69S424.54,367,433.09,362.89Z"/></g></svg>