<svg xmlns="http://www.w3.org/2000/svg" version="1.1" x="0" y="0" width="128" height="128" viewBox="0 0 128 128">
<g id="base" opacity="0.90">
<path class="base" d="M64 0C99.3 0 128 28.6 128 64 128 99.4 99.3 128 64 128 28.7 128 0 99.4 0 64 0 28.6 28.7 0 64 0z" fill="#000000" id="Color_Fill_16_copy_17"/></g>
<g id="Color_Fill_40_copy_3">
<path class="main" d="M64 7C64 7 91.8 55 91.8 55L36.2 55C36.2 55 64 7 64 7zM64 43C61.8 43 60 44.8 60 47 60 49.2 61.8 51 64 51 66.2 51 68 49.2 68 47 68 44.8 66.2 43 64 43zM64 19C61.9 19 60 20.7 60 22.8 60.2 24.3 61.3 35.5 61.3 36.1 61.3 38.2 62.5 39.9 64 39.9 65.5 39.9 66.7 38.2 66.7 36.1 66.7 35.5 67.8 24.3 67.9 22.8 67.9 20.7 66.1 19 64 19z" fill="#FFFFFF" id="Color_Fill_40_copy_3"/></g></svg>