<svg xmlns="http://www.w3.org/2000/svg" version="1.1" x="0" y="0" width="128" height="128" viewBox="0 0 128 128">
<g id="base" opacity="0.90">
<path class="base" d="M64 0C99.3 0 128 28.6 128 64 128 99.4 99.3 128 64 128 28.7 128 0 99.4 0 64 0 28.6 28.7 0 64 0z" fill="#000000" id="Color_Fill_16_copy_25"/></g>
<g id="Color_Fill_3_copy_6">
<path class="main" d="M45.5 57.2C45.5 57.2 55 37 55 37 55 37 42.2 37 42.2 37 42.2 37 77 9.3 77 9.3 77 9.3 77.5 9.3 77.5 9.3 77.5 9.3 70 30 70 30 70 30 84.6 30 84.6 30 84.6 30 45.5 57.2 45.5 57.2z" fill="#FFFFFF" id="Color_Fill_3_copy_6"/></g></svg>