<svg xmlns="http://www.w3.org/2000/svg" version="1.1" x="0" y="0" width="128" height="128" viewBox="0 0 128 128">
<g id="base" opacity="0.9">
<path class="base" d="M64 0C99.3 0 128 28.6 128 64 128 99.4 99.3 128 64 128 28.7 128 0 99.4 0 64 0 28.6 28.7 0 64 0z" fill="#000000" id="Color_Fill_16_copy_40"/></g>
<g id="Color_Fill_240">
<path class="main" d="M64 8C92.6 8 116.1 29.4 119.5 57L75.5 57C73.3 61.1 69 64 64 64 59 64 54.7 61.1 52.5 57 52.5 57 8.5 57 8.5 57 11.9 29.4 35.4 8 64 8zM89.5 23.1C89.1 23.1 88.8 23.4 88.5 23.6 86.4 25.7 69.4 42.6 69.4 42.6 65.6 40.1 60.3 40.5 56.9 43.9 53 47.8 53 54.2 56.9 58.1 60.8 62 67.1 62 71.1 58.1 74.5 54.7 74.9 49.4 72.4 45.5 72.4 45.5 88.7 29.2 91.4 26.5 92.2 25.7 92.2 24.4 91.4 23.6L90.7 23.1C89.9 23.1 90.3 23.1 89.5 23.1zM65.1 45.1C67.7 46.1 66.7 45.5 68.2 46.7 70.6 49.1 70.6 52.9 68.2 55.2 65.9 57.6 62.1 57.6 59.7 55.2 57.4 52.9 57.4 49.1 59.7 46.7 61.7 44.9 62.6 45.1 65.1 45.1zM64 14C40.9 14 21.5 29.7 15.7 51 31.9 51 43.4 51 51 51 51 51 51 51 51 51 51 43.8 56.8 38 64 38 64 30.6 64 21.3 64 14z" fill="#FFFFFF" id="Color_Fill_240"/></g></svg>