<svg xmlns="http://www.w3.org/2000/svg" version="1.1" x="0" y="0" width="128" height="128" viewBox="0 0 128 128">
<g id="base" opacity="0.90">
<path class="base" d="M64 0C99.3 0 128 28.6 128 64 128 99.4 99.3 128 64 128 28.7 128 0 99.4 0 64 0 28.6 28.7 0 64 0z" fill="#000000" id="Color_Fill_16_copy_27"/></g>
<g id="Color_Fill_49_copy">
<path class="main" d="M74.4 54C75.1 54 75.9 54.9 75.9 56 75.9 57.1 75.1 58 74.4 58 74.4 58 74.4 58 74.4 58 74.4 58 74.4 58 74.4 58 74.4 58 48.5 58 48.5 58 48.5 58 48.5 58 48.5 58 47.8 58 47 57.1 47 56 47 54.9 47.8 54 48.5 54L74.4 54zM72.3 10C73.2 10 74 10.7 74 11.7 74 11.7 74 30 74 30 74 30 74.6 30 74.7 30 78.3 30 81 33.1 81 36.6 81 38.6 81 28.1 81 46 81 47.7 82.5 49 84.1 49 85.8 49 87 47.7 87 46 87 46 87 28.6 87 27.6 84.5 26.7 83 24.3 83 21.5 83 20.5 83.2 19.6 83.6 18.7 83.6 18.7 81.2 16.3 80.4 15.5 79.8 14.9 79.8 14 80.4 13.4 81 12.8 81.7 12.8 82.4 13.4 87.7 18.7 88.4 19.6 89.5 20.7 90.1 21.2 90 21.9 90 21.9 90 21.9 90 29.4 90 45.6 90 49.1 87.6 52 84.1 52 80.6 52 78 49.1 78 45.6 78 27.8 78 38.3 78 36.2 78 34.6 76.4 33.1 74.7 33.1 74.6 33.1 74 33.1 74 33.1 74 33.1 74 50.3 74 50.3 74 51.2 73.2 52 72.3 52 72.3 52 50.7 52 50.7 52 49.8 52 49 51.2 49 50.3 49 50.3 49 11.7 49 11.7 49 10.7 49.8 10 50.7 10L72.3 10zM69.2 13L53.9 13C53.4 13 53 13.4 53 13.8 53 13.8 53 26.1 53 26.1 53 26.6 53.4 27 53.9 27 53.9 27 69.2 27 69.2 27 69.6 27 70 26.6 70 26.1L70 13.8C70 13.4 69.6 13 69.2 13z" fill="#FFFFFF" id="Color_Fill_49_copy"/></g></svg>