<svg xmlns="http://www.w3.org/2000/svg" version="1.1" x="0" y="0" width="128" height="128" viewBox="0 0 128 128">
<g id="base" opacity="0.90">
<path class="base" d="M64 0C99.3 0 128 28.6 128 64 128 99.4 99.3 128 64 128 28.7 128 0 99.4 0 64 0 28.6 28.7 0 64 0z" fill="#000000" id="Color_Fill_16_copy_14"/></g>
<g id="Color_Fill_231_copy_3">
<path class="main" d="M64 18C72.3 18 79 24.7 79 33 79 38.7 75.8 43.7 71 46.2L71 57.3C71 58.2 70.3 59 69.3 59L58.7 59C57.7 59 57 58.2 57 57.3L57 46.3C52.2 43.7 49 38.7 49 33 49 24.7 55.7 18 64 18zM64 22C57.9 22 53 26.9 53 33 53 39.1 57.9 44 64 44 70.1 44 75 39.1 75 33 75 26.9 70.1 22 64 22zM50.1 44.5C50.9 44.6 50.5 44.6 51.3 44.6L52 45C52.8 45.8 52.7 47.1 51.9 47.9 52 47.9 48.1 51.8 47.8 52 47 52.9 45.7 52.9 44.9 52.1 44.1 51.3 44.1 50 44.9 49.2L49 45.1C49.4 44.8 49.6 44.6 50.1 44.5zM77.9 44.5C78.3 44.5 78.6 44.9 78.9 45.1 78.9 45 82.8 48.9 83 49.2 83.9 50 83.9 51.3 83.1 52.1 82.3 52.9 81 52.9 80.2 52 79.9 51.8 76 47.9 76.1 47.9 75.2 47.1 75.2 45.8 76 45L76.7 44.6C77.5 44.6 77.1 44.6 77.9 44.5zM88.9 31C90 31 91 31.9 91 33 91 34.1 90 35 88.9 35L83.1 35C81.9 35 81 34.2 81 33 81 31.8 81.9 31 83.1 31L88.9 31zM44.9 31C46 31 47 31.9 47 33 47 34.1 46 35 44.9 35L39.1 35C37.9 35 37 34.1 37 33 37 31.9 37.9 31 39.1 31L44.9 31zM82.4 13.5L83.1 13.9C83.9 14.7 83.8 16 83 16.8 83.1 16.8 79.2 20.7 78.9 20.9 78.1 21.7 76.8 21.8 76 21 75.2 20.1 75.2 18.9 76.1 18 76.3 17.8 80.2 13.9 80.1 14 81.3 13.2 80.6 13.5 82.4 13.5zM46.8 13.4C47.2 13.4 47.5 13.7 47.8 14 47.8 13.9 51.6 17.8 51.9 18 52.7 18.9 52.8 20.1 52 21 51.1 21.8 49.9 21.7 49 20.9 48.8 20.7 44.9 16.8 45 16.8 44.1 16 44.1 14.7 44.9 13.9L45.6 13.5C46.4 13.5 46 13.5 46.8 13.4zM64 6C65.1 6 66 6.9 66 8.1L66 13.9C66 15 65.1 16 64 16 62.8 16 62 15 62 13.9L62 8.1C62 6.9 62.9 6 64 6z" fill="#FFFFFF" id="Color_Fill_231_copy_3"/></g></svg>