<?xml version="1.0" encoding="utf-8"?>
<!-- Generator: Adobe Illustrator 16.0.0, SVG Export Plug-In . SVG Version: 6.00 Build 0)  -->
<!DOCTYPE svg PUBLIC "-//W3C//DTD SVG 1.1//EN" "http://www.w3.org/Graphics/SVG/1.1/DTD/svg11.dtd">
<svg version="1.1" id="Layer_1" xmlns="http://www.w3.org/2000/svg" xmlns:xlink="http://www.w3.org/1999/xlink" x="0px" y="0px"
	 width="108px" height="108px" viewBox="0 0 108 108" enable-background="new 0 0 108 108" xml:space="preserve">
<circle class="base" cx="54.33" cy="54.685" r="49"/>
<path class="main" fill="#FFFFFF" d="M16.796,54.686c0,1.138,0.515,2.156,1.323,2.83L52.19,77.791c0.453,0.246,0.869,0.418,1.372,0.418
	c1.335,0,2.426-1.104,2.426-2.451H56V33.614h-0.012c0-1.348-1.091-2.451-2.426-2.451c-0.49,0-0.918,0.147-1.335,0.393L18.119,51.856
	C17.311,52.542,16.796,53.546,16.796,54.686z"/>
<path class="main" fill="#FFFFFF" d="M47.216,54.686c0,1.138,0.515,2.156,1.323,2.83l34.071,20.275c0.453,0.246,0.87,0.418,1.373,0.418
	c1.335,0,2.426-1.104,2.426-2.451h0.012V33.614h-0.012c0-1.348-1.091-2.451-2.426-2.451c-0.49,0-0.92,0.147-1.336,0.393
	L48.539,51.856C47.73,52.542,47.216,53.546,47.216,54.686z"/>
</svg>
