<svg xmlns="http://www.w3.org/2000/svg" version="1.1" x="0" y="0" width="128" height="128" viewBox="0 0 128 128">
<g id="base" opacity="0.90">
<path class="base" d="M64 0C99.3 0 128 28.6 128 64 128 99.4 99.3 128 64 128 28.7 128 0 99.4 0 64 0 28.6 28.7 0 64 0z" fill="#000000" id="Color_Fill_16_copy_12"/></g>
<g id="Color_Fill_197_copy_2">
<path class="main" d="M42.1 13.1C42.1 13.1 44.5 15.5 44.5 15.5 39.5 20.5 36.4 27.4 36.4 35 36.4 42.6 39.5 49.5 44.5 54.5 44.5 54.5 42.1 56.9 42.1 56.9 36.5 51.3 33 43.5 33 35 33 26.4 36.5 18.7 42.1 13.1zM86 13.1C91.5 18.7 95 26.4 95 35 95 43.5 91.5 51.3 85.9 56.9 85.9 56.9 83.5 54.5 83.5 54.5 88.5 49.5 91.6 42.6 91.6 35 91.6 27.4 88.5 20.5 83.6 15.5 83.6 15.5 86 13.1 86 13.1zM47 18C47 18 49.4 20.4 49.4 20.4 45.7 24.2 43.4 29.3 43.4 35 43.4 40.7 45.7 45.9 49.4 49.6 49.4 49.6 47.1 52 47.1 52 42.7 47.6 40 41.6 40 35 40 28.4 42.7 22.4 47 18zM81 18.1C85.3 22.4 88 28.4 88 35 88 41.6 85.3 47.6 81 51.9 81 51.9 78.6 49.6 78.6 49.6 82.3 45.9 84.6 40.7 84.6 35 84.6 29.3 82.3 24.2 78.6 20.5 78.6 20.5 81 18.1 81 18.1zM52.7 23.7C52.7 23.7 55.2 26.2 55.2 26.2 52.9 28.4 51.5 31.6 51.5 35 51.5 38.5 52.9 41.6 55.2 43.9 55.2 43.9 52.7 46.3 52.7 46.3 49.8 43.4 48 39.4 48 35 48 30.6 49.8 26.6 52.7 23.7zM75.3 23.7C78.2 26.6 80 30.6 80 35 80 39.4 78.2 43.4 75.3 46.3 75.3 46.3 72.9 43.8 72.9 43.8 75.1 41.6 76.5 38.5 76.5 35 76.5 31.6 75.1 28.5 72.9 26.2 72.9 26.2 75.3 23.7 75.3 23.7zM64 27C68.4 27 72 30.6 72 35 72 39.4 68.4 43 64 43 59.6 43 56 39.4 56 35 56 30.6 59.6 27 64 27z" fill="#FFFFFF" id="Color_Fill_197_copy_2"/></g></svg>