<svg xmlns="http://www.w3.org/2000/svg" version="1.1" x="0" y="0" width="128" height="128" viewBox="0 0 128 128">
<g id="base" opacity="0.9">
<path class="base" d="M64 0C99.3 0 128 28.6 128 64 128 99.4 99.3 128 64 128 28.7 128 0 99.4 0 64 0 28.6 28.7 0 64 0z" fill="#000000" id="Color_Fill_16_copy_41"/></g>
<g id="Color_Fill_237_copy">
<path class="main" d="M0 0zM82.5 33.1C84 33.3 83.4 33 84.3 33.6 85 34.3 85.1 35.3 84.6 36.1 84.6 36.1 84.6 36.1 84.6 36.1 84.6 36.1 72.4 58.8 72.4 58.8 72.4 58.8 72.4 58.8 72.4 58.8 72 59.6 71.4 60.4 70.7 61.1 66.9 65 60.6 65 56.8 61.1 53 57.3 53 51.1 56.8 47.2 57.5 46.5 58.3 46 59.1 45.5 59.1 45.5 59.1 45.5 59.1 45.5 59.1 45.5 81.8 33.3 81.8 33.3 81.8 33.3 81.8 33.3 81.8 33.3L82.5 33.1zM64.3 48C62.5 47.9 61.1 48.7 59.7 49.7 57.4 52.1 57.4 55.9 59.7 58.3 62.1 60.6 65.9 60.6 68.3 58.3 70.6 55.9 70.6 52.1 68.3 49.7 66.7 48.5 67.7 49.1 65.1 48.1L64.3 48zM64 8C65 8 66.1 8 67.1 8.1 67.2 8.1 67.3 8.1 67.3 8.1 67.5 8.1 67.6 8.1 67.8 8.2 68.6 8.2 69.4 8.3 70.2 8.4 70.3 8.4 70.4 8.4 70.6 8.4 70.6 8.4 70.7 8.4 70.8 8.4 71.6 8.5 72.4 8.7 73.3 8.8 73.4 8.8 73.6 8.8 73.7 8.9 74.6 9 75.4 9.2 76.3 9.4 77.7 9.7 79.1 10 80.4 10.5 82.4 11.1 84.4 11.8 86.3 12.6 86.3 12.7 86.4 12.7 86.4 12.7 87.4 13.1 88.3 13.5 89.2 14 89.2 14 89.2 14 89.2 14 93.9 16.4 98.2 19.4 102 23 102 23 102.1 22.9 102.1 22.9 103 23.9 104 24.8 104.9 25.8 104.9 25.8 104.9 25.8 104.9 25.8 110.6 31.9 115 39.3 117.5 47.5 117.5 47.5 117.5 47.5 117.5 47.5 117.7 48.1 117.9 48.8 118.1 49.5 118.3 50.1 118.4 50.7 118.6 51.4 118.6 51.4 107 54.5 107 54.5 106.8 53.8 106.7 53.2 106.5 52.5 106.5 52.5 106.5 52.5 106.5 52.5 106.3 51.9 106.1 51.2 105.9 50.6 105.9 50.6 111.7 49.1 111.7 49.1 109.4 41.9 105.6 35.4 100.6 30 100.6 30 96.4 34.3 96.4 34.3 95.5 33.3 94.6 32.3 93.6 31.4 93.6 31.4 97.8 27.2 97.8 27.2 92.4 22.3 86 18.4 78.8 16.2 78.8 16.2 77.2 22 77.2 22 76.6 21.9 76 21.7 75.4 21.5 75.4 21.5 75.3 21.5 75.3 21.5 74.7 21.3 74 21.2 73.4 21 73.4 21 74.9 15.2 74.9 15.2 71.4 14.4 67.8 14 64 14 60.2 14 56.5 14.4 52.9 15.2 52.9 15.2 54.5 21.1 54.5 21.1 53.8 21.2 53.2 21.4 52.5 21.5 52.5 21.5 52.5 21.5 52.5 21.5 51.9 21.7 51.2 21.9 50.6 22.1 50.6 22.1 49.1 16.3 49.1 16.3 41.9 18.5 35.5 22.3 30.1 27.3 30.1 27.3 34.3 31.5 34.3 31.5 33.3 32.4 32.4 33.4 31.5 34.4 31.5 34.4 27.2 30.1 27.2 30.1 22.3 35.5 18.5 41.9 16.3 49.1 16.3 49.1 22.1 50.6 22.1 50.6 21.7 51.9 21.3 53.2 21 54.5 21 54.5 9.4 51.4 9.4 51.4 9.7 50.1 10.1 48.8 10.5 47.5 10.5 47.5 10.5 47.5 10.5 47.5 10.6 47.2 10.7 46.9 10.8 46.6 10.8 46.4 10.9 46.2 11 46 11.3 45.1 11.6 44.3 11.9 43.4 12 43.3 12 43.1 12.1 43 12.1 43 12.1 42.9 12.1 42.9 13 40.8 13.9 38.8 15 36.9 15 36.9 15 36.8 15.1 36.8 15.6 35.9 16.1 35 16.6 34.1 16.6 34.1 16.7 34.1 16.7 34 16.8 33.9 16.8 33.8 16.9 33.7 17.4 32.9 18 32.1 18.5 31.3 18.6 31.2 18.7 31.1 18.8 31 20 29.2 21.4 27.6 22.9 26 23.9 24.9 24.9 23.9 25.9 23 26.4 22.5 26.9 22.1 27.4 21.6 27.5 21.5 27.6 21.4 27.7 21.4 28.2 20.9 28.7 20.5 29.2 20.1 29.4 20 29.5 19.9 29.6 19.8 30.1 19.4 30.6 19 31.2 18.6 31.3 18.6 31.4 18.5 31.5 18.4 32.1 18 32.6 17.6 33.2 17.2 33.2 17.2 33.2 17.2 33.3 17.2 34.1 16.7 34.9 16.1 35.8 15.6 35.8 15.6 35.9 15.6 35.9 15.6 35.9 15.6 36 15.5 36 15.5 36.9 15 37.7 14.6 38.6 14.1 38.6 14.1 38.6 14.1 38.7 14.1 38.7 14 38.7 14 38.8 14 39.4 13.7 40.1 13.3 40.8 13 40.9 13 40.9 13 40.9 13 43 12 45.2 11.2 47.5 10.5 47.5 10.5 47.5 10.5 47.5 10.5 47.5 10.5 47.5 10.5 47.5 10.5 48.2 10.3 48.8 10.1 49.5 9.9 50.2 9.7 50.8 9.6 51.5 9.4 52.4 9.2 53.3 9 54.3 8.9 54.3 8.9 54.3 8.9 54.3 8.9 54.4 8.8 54.5 8.8 54.6 8.8 55.5 8.7 56.3 8.5 57.2 8.4 57.4 8.4 57.6 8.4 57.7 8.4 58.6 8.3 59.4 8.2 60.2 8.2 60.5 8.1 60.7 8.1 60.9 8.1 61.9 8 63 8 64 8z" fill="#FFFFFF" id="Color_Fill_237_copy"/></g></svg>