<svg xmlns="http://www.w3.org/2000/svg" version="1.1" x="0" y="0" width="128" height="128" viewBox="0 0 128 128">
<g id="base" opacity="0.90">
<path class="base" d="M64 0C99.3 0 128 28.6 128 64 128 99.4 99.3 128 64 128 28.7 128 0 99.4 0 64 0 28.6 28.7 0 64 0z" fill="#000000" id="Color_Fill_16_copy_9"/></g>
<g id="battery">
<path class="main" d="M94.3 22C95.2 22 96 22.8 96 23.7 96 23.7 96 50.3 96 50.3 96 51.2 95.2 52 94.3 52 94.3 52 27.7 52 27.7 52 26.7 52 26 51.2 26 50.3 26 50.3 26 23.7 26 23.7 26 22.8 26.7 22 27.7 22L94.3 22zM37.1 26L30.9 26C30.4 26 30 26.4 30 26.9L30 47.1C30 47.6 30.4 48 30.9 48L37.1 48C37.6 48 38 47.6 38 47.1L38 26.9C38 26.4 37.6 26 37.1 26zM59.1 26L52.9 26C52.4 26 52 26.4 52 26.9L52 47.1C52 47.6 52.4 48 52.9 48L59.1 48C59.6 48 60 47.6 60 47.1L60 26.9C60 26.4 59.6 26 59.1 26zM48.1 26L41.8 26C41.4 26 41 26.4 41 26.9L41 47.1C41 47.6 41.4 48 41.8 48L48.1 48C48.6 48 49 47.6 49 47.1L49 26.9C49 26.4 48.6 26 48.1 26zM101.1 30C101.6 30 102 30.4 102 30.8 102 30.8 102 43.1 102 43.1 102 43.6 101.6 44 101.1 44 101.1 44 98 44 98 44 98 44 98 30 98 30L101.1 30z" fill="#FFFFFF" id="battery"/></g></svg>