<svg xmlns="http://www.w3.org/2000/svg" version="1.1" x="0" y="0" width="128" height="128" viewBox="0 0 128 128">
<g id="base" opacity="0.90">
<path class="base" d="M64 0C99.3 0 128 28.6 128 64 128 99.4 99.3 128 64 128 28.7 128 0 99.4 0 64 0 28.6 28.7 0 64 0z" fill="#000000" id="Color_Fill_16_copy_15"/></g>
<g id="Color_Fill_56_copy_2">
<path class="main" d="M87.5 47.1C83.6 56.9 74.7 58.9 68.4 59.3 72.7 58.4 75.3 55.6 76.7 53.3 78.6 50.4 79.3 47.5 79.7 42.6 79.1 44.3 72.8 49.6 72.7 46.3 73.3 41.1 69.4 32.9 63.7 28.5 67.6 36.5 56.8 37.8 57.2 45.6 55.9 43.4 55.9 41 55.9 41 55.9 41 55.9 40.7 56 40 56.2 39.1 55.2 40.1 54.9 40.8 53.5 43.7 51.5 48.3 53.6 53.1 55.3 57.5 58.8 58.9 61.8 59.3 52 58.7 46.2 53.3 43.9 48.7 38.8 38.9 46.4 35.5 38.9 23 41.7 23.6 44.5 24 47.3 28.3 49.5 19.2 56.2 11.6 68.4 4.9 68.9 4.6 70 4.3 69.4 5.6 62 22.7 81.4 19.9 80.7 33.7 83.1 29.5 83.1 25.1 83.1 25.1 83.1 25.1 83.1 24.6 83 23.4 82.8 22.6 85.5 24.8 86.1 25.9 88.8 29.7 92.1 38.1 87.5 47.1z" fill="#FFFFFF" id="Color_Fill_56_copy_2"/></g></svg>