<svg xmlns="http://www.w3.org/2000/svg" version="1.1" x="0" y="0" width="128" height="128" viewBox="0 0 128 128">
<g id="base" opacity="0.90">
<path class="base" d="M64 0C99.3 0 128 28.6 128 64 128 99.4 99.3 128 64 128 28.7 128 0 99.4 0 64 0 28.6 28.7 0 64 0z" fill="#000000" id="Color_Fill_16_copy_20"/></g>
<g id="i">
<path class="main" d="M64 9C77.2 9 88 19.7 88 33 88 46.2 77.2 57 64 57 50.7 57 40 46.2 40 33 40 19.7 50.7 9 64 9L64 9zM68 23C64.8 23.9 61.3 24.6 58 25 58 25 58 26.9 58 26.9 60.7 27.3 61 27.5 61 31.2 61 31.2 61 42.3 61 42.3 61 46.2 60.2 46.4 57 46.8 57 46.8 57 49 57 49L71.9 49C71.9 49 71.9 46.8 71.9 46.8 68.6 46.4 68 46.1 68 42.3L68 23zM64 13C61.8 13 59.9 14.7 59.9 17 59.9 19.1 61.8 21 63.9 21 66.2 21 68 19.1 68 17 68 14.7 66.2 13 64 13z" fill="#FFFFFF" id="i"/></g></svg>