<svg xmlns="http://www.w3.org/2000/svg" version="1.1" x="0" y="0" width="128" height="128" viewBox="0 0 128 128">
<g id="base" opacity="0.90">
<path class="base" d="M64 0C99.3 0 128 28.6 128 64 128 99.4 99.3 128 64 128 28.7 128 0 99.4 0 64 0 28.6 28.7 0 64 0z" fill="#000000" id="Color_Fill_16_copy_22"/></g>
<g id="Color_Fill_40_copy">
<path class="main" d="M73 13.3C81.9 16.6 88.1 25.3 88.1 35.4 88.1 48.5 77.7 59.1 64.6 59.1 51.5 59.1 40.9 48.5 40.9 35.4 40.9 25.4 47.2 16.7 56 13.3 56 16.3 56 19.8 56 22.9 52 25.6 49 30.2 49 35.4 49 43.9 56.2 50.9 64.6 50.9 73 50.9 79.8 43.9 79.8 35.4 79.8 30.1 77.1 25.6 73 22.9L73 13.3zM64.5 6C67 6 69 7.9 69 10.2 69 10 69 26.1 69 26.8 69 29.1 67 31 64.5 31 62 31 60 29.1 60 26.8 60 26.1 60 10 60 10.2 60 7.9 62 6 64.5 6z" fill="#FFFFFF" id="Color_Fill_40_copy"/></g></svg>