<svg xmlns="http://www.w3.org/2000/svg" version="1.1" x="0" y="0" width="128" height="128" viewBox="0 0 128 128">
<g id="base" opacity="0.90">
<path class="base" d="M64 0C99.3 0 128 28.6 128 64 128 99.4 99.3 128 64 128 28.7 128 0 99.4 0 64 0 28.6 28.7 0 64 0z" fill="#000000" id="Color_Fill_16_copy_23"/></g>
<g id="Color_Fill_190">
<path class="main" d="M69.6 8C70.3 8 71 8.8 71 9.5 71 9.5 71 11.5 71 11.5 71 12.3 70.3 13 69.6 13 69.6 13 67 13 67 13 67 13 67 17.3 67 17.3 70.9 17.8 74.4 19.4 77.2 21.7 77.2 21.7 79.6 19.4 79.6 19.4 80.1 18.9 80.9 18.9 81.4 19.4 81.4 19.4 83.5 21.5 83.5 21.5 84 22 84 22.8 83.5 23.3 83.5 23.3 81.1 25.8 81.1 25.8 83.5 29.3 85 33.5 85 38 85 49.6 75.6 59 64 59 52.4 59 43 49.6 43 38 43 27.5 50.8 18.7 61 17.3 61 17.3 61 13 61 13 61 13 58.3 13 58.3 13 57.6 13 57 12.3 57 11.6 57 11.6 57 9.4 57 9.4 57 8.7 57.6 8 58.3 8L69.6 8zM64.5 23C55.9 23 49 29.7 49 38 49 46.3 55.9 53 64.5 53 73.1 53 79 46.3 79 38 79 29.7 73.1 23 64.5 23zM64 26C65.1 26 66 26.7 66 27.7 66 28.7 66 34.7 66 37.2 67.3 38.5 69.9 41 70.5 41.7 71.2 42.4 71.1 43.6 70.3 44.3 69.6 45.1 68.4 45.2 67.7 44.5 66.9 43.7 63.4 40.3 62.5 39.4 62.4 39.2 62.2 39 62.1 38.8 62 38.6 62 38.3 62 38.1 62 36.8 62 28.8 62 27.7 62 26.7 62.9 26 64 26z" fill="#FFFFFF" id="Color_Fill_190"/></g></svg>