<svg xmlns="http://www.w3.org/2000/svg" version="1.1" x="0" y="0" width="128" height="128" viewBox="0 0 128 128">
<g id="base" opacity="0.9">
<path class="base" d="M64 0C99.3 0 128 28.6 128 64 128 99.4 99.3 128 64 128 28.7 128 0 99.4 0 64 0 28.6 28.7 0 64 0z" fill="#000000" id="Color_Fill_16_copy_44"/></g>
<g id="Color_Fill_237">
<path class="main" d="M82.5 33.1C84 33.3 83.4 33 84.3 33.6 85 34.3 85.1 35.3 84.6 36.1 84.6 36.1 84.6 36.1 84.6 36.1 84.6 36.1 72.4 58.8 72.4 58.8 72.4 58.8 72.4 58.8 72.4 58.8 72 59.6 71.4 60.4 70.7 61.1 66.9 65 60.6 65 56.8 61.1 53 57.3 53 51.1 56.8 47.2 57.5 46.5 58.3 46 59.1 45.5 59.1 45.5 59.1 45.5 59.1 45.5 59.1 45.5 81.8 33.3 81.8 33.3 81.8 33.3 81.8 33.3 81.8 33.3L82.5 33.1zM64.3 48C62.5 47.9 61.1 48.7 59.7 49.7 57.4 52.1 57.4 55.9 59.7 58.3 62.1 60.6 65.9 60.6 68.3 58.3 70.6 55.9 70.6 52.1 68.3 49.7 66.7 48.5 67.7 49.1 65.1 48.1L64.3 48zM10.4 47.5C10.4 47.5 17.2 49.3 17.2 49.3 16.8 50.6 16.5 51.9 16.2 53.2 16.2 53.2 9.3 51.3 9.3 51.3 9.6 50 10 48.7 10.4 47.5zM117.6 47.5C118 48.7 118.4 50 118.7 51.3 118.7 51.3 111.8 53.2 111.8 53.2 111.5 51.9 111.2 50.6 110.8 49.3 110.8 49.3 117.6 47.5 117.6 47.5zM16.5 34.2C16.5 34.2 22.6 37.7 22.6 37.7 21.9 38.9 21.2 40 20.6 41.2 20.6 41.2 14.4 37.7 14.4 37.7 15.1 36.5 15.7 35.3 16.5 34.2zM111.5 34.2C112.2 35.3 112.9 36.5 113.5 37.6 113.5 37.6 107.4 41.2 107.4 41.2 106.7 40 106.1 38.9 105.4 37.7 105.4 37.7 111.5 34.2 111.5 34.2zM25.8 22.9C25.8 22.9 30.8 28 30.8 28 29.8 28.9 28.9 29.8 28 30.8 28 30.8 22.9 25.8 22.9 25.8 23.9 24.8 24.8 23.8 25.8 22.9zM102.2 22.9C103.2 23.8 104.1 24.8 105 25.7 105 25.7 100 30.8 100 30.8 99.1 29.8 98.1 28.8 97.2 27.9 97.2 27.9 102.2 22.9 102.2 22.9zM37.7 14.4C37.7 14.4 41.3 20.6 41.3 20.6 40.1 21.2 38.9 21.9 37.8 22.6 37.8 22.6 34.2 16.4 34.2 16.4 35.4 15.7 36.5 15 37.7 14.4zM90.3 14.4C91.4 15 92.6 15.7 93.7 16.4 93.7 16.4 90.2 22.6 90.2 22.6 89 21.9 87.9 21.2 86.7 20.6 86.7 20.6 90.3 14.4 90.3 14.4zM51.4 9.3C51.4 9.3 53.2 16.2 53.2 16.2 51.9 16.5 50.6 16.8 49.3 17.2 49.3 17.2 47.5 10.3 47.5 10.3 48.8 10 50.1 9.6 51.4 9.3zM76.6 9.3C77.9 9.6 79.2 9.9 80.5 10.3 80.5 10.3 78.6 17.2 78.6 17.2 77.3 16.8 76 16.5 74.7 16.2 74.7 16.2 76.6 9.3 76.6 9.3zM64 7.9C64.7 7.9 65.3 7.9 66 7.9 66 7.9 66 15 66 15 65.3 15 64.7 15 64 15 63.3 15 62.7 15 62 15 62 15 62 7.9 62 7.9 62.7 7.9 63.3 7.9 64 7.9z" fill="#FFFFFF" id="Color_Fill_237"/></g></svg>