<svg xmlns="http://www.w3.org/2000/svg" version="1.1" x="0" y="0" width="128" height="128" viewBox="0 0 128 128">
<g id="base" opacity="0.9">
<path class="base" d="M64 0C99.3 0 128 28.6 128 64 128 99.4 99.3 128 64 128 28.7 128 0 99.4 0 64 0 28.6 28.7 0 64 0z" fill="#000000" id="Color_Fill_16_copy_41"/></g>
<g id="Color_Fill_234_copy">
<path class="main" d="M98.7 16.9C99.5 17 99.1 17 99.9 17L100.6 17.4C101.4 18.2 101.4 19.5 100.6 20.3 97.8 23.1 72.4 48.5 72.4 48.5 74.9 52.4 74.5 57.7 71.1 61.1 67.1 65 60.8 65 56.9 61.1 53 57.2 53 50.8 56.9 46.9 60.3 43.5 65.6 43.1 69.4 45.6 69.4 45.6 95.5 19.5 97.7 17.4 98 17.2 98.2 17 98.7 16.9zM64.3 48C62.5 47.9 61.1 48.7 59.7 49.7 57.4 52.1 57.4 55.9 59.7 58.2 62.1 60.6 65.9 60.6 68.2 58.2 70.6 55.9 70.6 52.1 68.2 49.7 66.7 48.5 67.7 49.1 65.1 48.1L64.3 48zM102.1 23C110.3 30.6 116.2 40.6 118.7 52 118.7 52 112.5 52 112.5 52 110.1 42.3 104.9 33.8 97.9 27.2 97.9 27.2 102.1 23 102.1 23zM64 8C75.1 8 85.4 11.2 94.1 16.8 94.1 16.8 89.7 21.1 89.7 21.1 82.2 16.6 73.4 14 64 14 40.5 14 20.8 30.2 15.5 52 15.5 52 9.3 52 9.3 52 14.8 26.8 37.2 8 64 8z" fill="#FFFFFF" id="Color_Fill_234_copy"/></g></svg>