<svg xmlns="http://www.w3.org/2000/svg" version="1.1" x="0" y="0" width="128" height="128" viewBox="0 0 128 128">
<g id="base" opacity="0.9">
<path class="base" d="M64 0C99.3 0 128 28.6 128 64 128 99.4 99.3 128 64 128 28.7 128 0 99.4 0 64 0 28.6 28.7 0 64 0z" fill="#000000" id="Color_Fill_16_copy_39"/></g>
<g id="Color_Fill_234">
<path class="main" d="M82.7 32.9C83.5 33 83.1 33 83.9 33L84.6 33.4C85.4 34.2 85.4 35.5 84.6 36.3 81.8 39.1 72.4 48.5 72.4 48.5 74.9 52.4 74.5 57.7 71.1 61.1 67.1 65 60.8 65 56.9 61.1 53 57.2 53 50.8 56.9 46.9 60.3 43.5 65.6 43.1 69.4 45.6 69.4 45.6 79.5 35.5 81.7 33.4 82 33.2 82.2 33 82.7 32.9zM65.1 48.1C62.8 47.8 61.5 48.3 59.7 49.7 57.4 52.1 57.4 55.9 59.7 58.2 62.1 60.6 65.9 60.6 68.2 58.2 70.6 55.9 70.6 52.1 68.2 49.7 66.7 48.5 67.7 49.1 65.1 48.1zM104.9 25.8C110.6 32 115 39.4 117.5 47.6 117.5 47.6 105.9 50.7 105.9 50.7 104 44.5 100.7 39 96.4 34.3 96.4 34.3 104.9 25.8 104.9 25.8zM23.1 25.7C23.1 25.7 31.6 34.2 31.6 34.2 27.4 38.9 24.1 44.4 22.1 50.6 22.1 50.6 10.5 47.5 10.5 47.5 13.1 39.3 17.4 31.8 23.1 25.7zM80.4 10.5C88.6 13 96 17.3 102.1 23 102.1 23 93.6 31.5 93.6 31.5 89 27.3 83.4 24 77.3 22.1 77.3 22.1 80.4 10.5 80.4 10.5L80.4 10.5zM47.7 10.4C47.7 10.4 50.8 22 50.8 22 44.7 24 39.1 27.2 34.5 31.4 34.5 31.4 26 22.9 26 22.9 32.1 17.2 39.5 12.9 47.7 10.4zM64 8C68.3 8 72.5 8.5 76.5 9.4 76.5 9.4 73.4 21 73.4 21 70.4 20.4 67.2 20 64 20 60.8 20 57.7 20.4 54.6 21 54.6 21 51.5 9.4 51.5 9.4 55.5 8.5 59.7 8 64 8z" fill="#FFFFFF" id="Color_Fill_234"/></g></svg>