<svg xmlns="http://www.w3.org/2000/svg" version="1.1" x="0" y="0" width="128" height="128" viewBox="0 0 128 128">
<g id="base" opacity="0.90">
<path class="base" d="M64 0C99.3 0 128 28.6 128 64 128 99.4 99.3 128 64 128 28.7 128 0 99.4 0 64 0 28.6 28.7 0 64 0z" fill="#000000" id="Color_Fill_16_copy_21"/></g>
<g>
<path class="main" d="M49.4 41C59.1 41.7 67 49.4 76.9 49.1 81.1 48.6 84.4 44 86.5 41.9 86.5 41.9 86.5 41.9 86.5 42 87 41.4 87.7 41 88.5 41 90 41 91.1 42.2 91.1 43.6 91.1 44.5 90.7 45.2 90.1 45.7 89.2 46.9 83.4 54.2 77 54.9 68.2 55.9 56.5 45.6 47.7 46.6 43.8 47 40.8 50.7 38.8 53 38.3 53.9 37.5 54.5 36.4 54.5 35 54.5 33.8 53.3 33.8 51.9 33.8 51.1 34.2 50.4 34.7 49.9 34.7 49.9 34.6 49.9 34.6 49.9 34.6 49.9 40.6 41.9 47.7 41.1L49.4 41zM49.3 27C59.1 27.7 67 35.4 76.9 35.1 81.1 34.6 84.4 30 86.5 27.9 86.5 27.9 86.6 28 86.6 28 87.1 27.4 87.7 27 88.5 27 89.9 27 91.1 28.2 91.1 29.6 91.1 30.5 90.7 31.2 90.1 31.7 89.1 32.9 83.4 40.1 76.9 40.9 68.2 41.9 56.4 31.6 47.7 32.6 43.8 33 40.9 36.7 38.8 39 38.4 39.9 37.5 40.5 36.5 40.5 35.1 40.5 33.9 39.3 33.9 37.9 33.9 37.1 34.3 36.4 34.8 35.9 34.8 35.9 34.7 35.9 34.7 35.9 34.7 35.9 40.6 27.8 47.7 27L49.3 27zM49.3 13C59.1 13.6 67 21.4 76.9 21 81.1 20.6 84.4 16 86.5 13.9 86.5 13.9 86.5 13.9 86.5 13.9 87 13.4 87.7 13 88.5 13 89.9 13 91.1 14.2 91.1 15.6 91.1 16.4 90.7 17.2 90.1 17.6 89.1 18.9 83.4 26.1 76.9 26.9 68.2 27.8 56.4 17.6 47.7 18.5 43.8 19 40.9 22.7 38.8 25 38.4 25.8 37.5 26.4 36.5 26.4 35.1 26.4 33.9 25.3 33.9 23.8 33.9 23.1 34.3 22.4 34.8 21.9 34.8 21.9 34.7 21.8 34.7 21.8 34.7 21.8 40.6 13.8 47.7 13L49.3 13z" fill="#FFFFFF" id="Color_Fill_241_copy_3"/></g></svg>